<?xml version="1.0" encoding="UTF-8" standalone="no"?>
<!-- Created with Inkscape (http://www.inkscape.org/) -->

<svg
   width="264.58334mm"
   height="70.693359mm"
   viewBox="0 0 264.58334 70.693361"
   version="1.1"
   id="svg1"
   inkscape:version="1.4 (86a8ad7, 2024-10-11)"
   xml:space="preserve"
   sodipodi:docname="drawing.svg"
   xmlns:inkscape="http://www.inkscape.org/namespaces/inkscape"
   xmlns:sodipodi="http://sodipodi.sourceforge.net/DTD/sodipodi-0.dtd"
   xmlns="http://www.w3.org/2000/svg"
   xmlns:svg="http://www.w3.org/2000/svg"><sodipodi:namedview
     id="namedview1"
     pagecolor="#ffffff"
     bordercolor="#000000"
     borderopacity="0.25"
     inkscape:showpageshadow="2"
     inkscape:pageopacity="0.0"
     inkscape:pagecheckerboard="false"
     inkscape:deskcolor="#d1d1d1"
     inkscape:document-units="px"
     showguides="false"
     inkscape:zoom="0.39063903"
     inkscape:cx="645.09683"
     inkscape:cy="-88.316828"
     inkscape:window-width="1920"
     inkscape:window-height="1057"
     inkscape:window-x="-8"
     inkscape:window-y="-8"
     inkscape:window-maximized="1"
     inkscape:current-layer="layer1" /><defs
     id="defs1" /><g
     inkscape:label="Layer 1"
     inkscape:groupmode="layer"
     id="layer1"
     transform="translate(152.13542,-35.057293)"
     sodipodi:insensitive="true"><path
       id="rect1"
       style="fill:#d82c20;fill-opacity:1;stroke:none;stroke-width:0.264583;stroke-linecap:square;stroke-dasharray:none;stroke-dashoffset:0"
       d="m -152.13542,35.057293 v 70.693357 h 70.342929 V 35.057293 Z m 75.621192,0 V 105.75065 H 112.44791 V 35.057293 Z" /><path
       id="path2"
       style="fill:#ffffff;stroke:none;stroke-width:0.264583;stroke-linecap:square;stroke-dasharray:none;stroke-dashoffset:0"
       d="m -96.141045,45.321255 c -0.04215,-0.018 -0.09611,0.02487 -0.164719,0.156106 -0.185016,0.353894 -0.252685,0.774505 -0.902454,2.081322 -0.220312,0.443093 -0.458601,0.87365 -0.706782,1.297294 -0.181403,-0.330734 -0.365465,-0.73375 -0.56252,-0.980507 -0.172938,-0.216556 -0.363313,-0.319547 -0.55579,-0.129729 -0.343318,0.338573 0.17879,1.297492 0.496847,2.117388 -0.38466,0.585187 -0.805232,1.144605 -1.237004,1.695902 -0.0096,-0.02792 -0.01647,-0.04914 -0.02773,-0.08155 -0.490143,-1.411514 -1.006023,-1.817808 -1.408443,-1.815673 -0.81459,0.0043 -0.32323,1.042748 0.13618,2.802101 0.0703,0.269215 0.0924,0.413064 0.0974,0.535067 -0.1236,0.138589 -0.23964,0.282931 -0.36578,0.419601 -0.35254,0.381982 -0.71743,0.754214 -1.08789,1.122348 -0.11249,-0.457021 -0.22966,-0.857864 -0.34936,-1.202554 -0.49014,-1.411514 -1.00603,-1.817808 -1.40845,-1.815673 -0.81459,0.0043 -0.32322,1.043017 0.13619,2.80237 0.1156,0.4427 0.21564,0.93695 0.30091,1.47197 -0.57007,0.520777 -1.15746,1.026229 -1.75162,1.525801 -0.21125,-0.90689 -0.59102,-2.146418 -1.3347,-3.18133 -0.59671,-0.830376 -1.42314,-1.551065 -1.78984,-0.490926 -0.13894,0.401673 -0.0368,0.983434 0.17253,1.731968 0.34422,1.230832 0.77004,1.828701 1.02626,3.51292 -0.52737,0.417503 -1.05606,0.8338 -1.58798,1.243464 -0.13465,0.103708 -0.26899,0.206925 -0.40372,0.310598 -0.31753,-1.325106 -0.90886,-3.492453 -1.76857,-4.688829 -0.59671,-0.830376 -1.79779,-1.506925 -2.16449,-0.446786 -0.13894,0.401673 -0.0371,0.983704 0.17226,1.732237 0.35919,1.284382 1.03328,3.060808 1.3495,5.258346 -0.71126,0.54678 -1.41989,1.094168 -2.12653,1.640189 -0.56995,-2.169147 -0.97992,-4.153827 -2.09936,-5.605279 -0.71905,-0.932309 -2.11072,-1.952624 -2.65784,-0.904337 -0.69216,1.326212 1.03048,5.178143 1.70936,8.889423 -0.35324,0.277836 -0.71814,0.556383 -1.06798,0.83409 -0.38944,0.309139 -0.77613,0.616253 -1.16541,0.923716 -0.65071,-2.458274 -1.38227,-5.5063 -2.82901,-7.117621 -0.7866,-0.876075 -1.98056,-1.873821 -2.65757,-0.904338 -1.07068,1.533216 1.36975,6.688304 2.16072,10.685448 -0.63515,0.522861 -1.26129,1.054295 -1.87866,1.594969 -1.10489,-2.377681 -2.74497,-5.444043 -4.4369,-6.859505 -0.90305,-0.755479 -2.40126,-1.548348 -2.93372,-0.492541 -0.8111,1.608337 2.33652,6.816909 3.8246,10.772115 -0.59819,0.642934 -1.18391,1.300166 -1.73816,1.994119 -3.5e-4,4.48e-4 -5.2e-4,0.001 -0.001,0.0016 -1.06714,-2.405766 -2.51341,-5.622767 -4.26035,-7.084244 -0.90304,-0.755482 -2.40125,-1.548352 -2.93371,-0.492541 -0.88648,1.757789 2.95488,7.815521 4.19091,11.837668 -0.96348,1.512391 -1.86269,3.068566 -2.70924,4.650612 -1.04322,1.949544 -2.01179,3.941653 -3.06884,5.885994 -0.0218,0.72971 -0.11898,3.191489 1.16918,2.993198 1.16348,-2.635966 2.464,-5.205063 3.89593,-7.679869 1.85947,-3.213756 3.18397,-6.102771 5.15768,-8.654732 3.07708,-3.978603 6.64789,-7.511308 11.78707,-11.185521 3.22032,-2.302339 6.08098,-4.705735 9.00812,-7.014537 2.90979,-2.295122 5.32835,-4.411141 7.37196,-6.927871 1.344116,-1.655297 2.525825,-3.483776 3.57859,-5.650765 0.291047,-0.646874 0.467704,-1.213605 0.529953,-1.699939 0.01468,-0.114735 0.05263,-1.334492 -0.129998,-1.412489 z m 0.200515,5.32321 c -0.226452,-0.0025 -0.374046,0.01619 -0.36658,0.0498 l -0.639226,1.137957 c 0.995244,-0.05954 2.516972,0.177874 3.086859,-0.280452 0.271281,-0.218174 -0.200096,-0.549368 -0.645148,-0.692249 -0.461983,-0.148317 -1.058484,-0.210913 -1.435905,-0.215049 z m -1.81648,2.528647 -1.153569,1.387458 c 1.046312,0.07867 2.706253,0.372925 3.652878,0.332399 0.386403,-0.01654 0.653938,-0.08887 0.712435,-0.254345 0.201804,-0.570865 -1.371761,-1.236574 -3.211744,-1.465512 z m -2.48881,2.97301 -1.74193,1.852008 c 0.9848,0.202882 3.551002,1.019527 5.103587,1.083052 0.593332,0.02428 1.185651,-0.02174 1.19125,-0.333475 0.02795,-1.555796 -2.66469,-2.053254 -4.552907,-2.601585 z m -3.31833,3.318058 -2.34805,2.039604 c 1.52791,0.369326 3.87828,1.392376 5.52373,1.757806 0.873629,0.194019 1.600711,0.232473 1.796293,-0.170371 0.597655,-1.231003 -1.898693,-2.466249 -4.971973,-3.627039 z m -3.79203,3.1528 -2.734,2.182791 c 1.89767,0.734031 4.48289,2.027622 6.22728,2.502808 0.8758,0.238576 1.61711,0.316546 1.79817,-0.07751 0.20496,-0.446055 0.0327,-0.964248 -0.38542,-1.497271 -0.91571,-1.167467 -3.01085,-2.405844 -4.90603,-3.110814 z m -4.34351,3.307292 -3.1528,2.513305 c 0.0459,-0.03881 4.68013,2.262508 7.31975,2.999114 1.01526,0.283317 1.6428,0.312042 1.7858,-0.06674 0.92848,-2.459399 -5.94272,-5.459282 -5.95275,-5.445676 z m -4.89473,3.814367 -3.46151,2.822017 c 2.86319,0.786056 9.3921,3.997573 10.31995,2.742085 1.66212,-2.249059 -3.84505,-4.191978 -6.85844,-5.564102 z m -5.44567,4.563675 -3.88057,3.924715 c 3.96446,0.1809 11.98999,2.453534 12.89192,0.772457 0.56292,-1.049227 -2.26645,-3.949216 -9.01135,-4.697172 z m -5.26938,5.666373 -2.9103,4.519809 c 2.82898,-0.146773 8.32837,0.733423 11.05284,0.435205 0.84587,-0.09259 1.42155,-0.299979 1.57209,-0.684713 0.2492,-0.636856 -0.32074,-3.392698 -9.71463,-4.270301 z" /><path
       id="path13"
       style="fill:#ffffff;fill-opacity:1;stroke:none;stroke-width:0.264583;stroke-linecap:square;stroke-dasharray:none;stroke-dashoffset:0"
       d="m -8.3941941,52.122358 v 26.275586 l -3.5855929,-1.964248 c 0.703787,-6.031632 -0.994609,-10.296383 -4.457357,-12.553335 -3.953118,-2.576566 -10.205621,-2.536476 -17.808454,0.478545 l 1.717972,4.996734 c 1.250674,-0.464795 7.426454,-2.592837 11.285648,-1.011727 1.90299,0.779652 3.242617,2.461214 3.150649,5.68871 -6.381821,-2.050784 -11.540971,-1.525308 -14.782153,0.553107 -4.942216,3.169202 -4.351302,9.190885 -2.053868,12.268571 1.745649,2.338513 4.574234,3.506261 7.263768,3.497042 3.748562,-0.01287 7.546059,-2.518501 8.979857,-8.27415 -2.072009,2.378061 -5.514928,3.938601 -8.235124,3.425449 -2.173449,-0.410011 -3.761675,-2.584348 -3.439712,-4.554794 0.423553,-2.592208 3.747866,-4.892859 12.229818,-2.676947 v 11.597323 h 6.173452 v -9.127887 l 3.5715974,2.249003 v 6.74646 h 6.1734465 V 87.398793 C 1.3729187,89.543202 4.5051391,90.429014 7.1959407,90.44016 15.470127,90.47438 19.570403,82.23891 19.772424,76.902825 20.346266,61.74563 5.9053527,58.572011 -2.1661094,65.791851 V 52.122358 Z m -51.0420499,1.284644 v 36.465259 h 21.763852 V 84.010487 H -53.091078 V 53.407002 Z m 154.76553,8.548681 c -3.387317,0.44131 -5.166076,0.958531 -6.602203,2.305792 -0.998021,0.936266 -1.830559,2.273327 -2.922408,4.264382 v -6.041029 l -6.261732,0.08801 v 27.207103 h 6.30587 V 77.874177 c 0,-3.085457 0.851294,-4.356133 2.056836,-5.953825 1.468124,-1.94569 3.813371,-3.195932 7.423637,-3.306214 z m -59.529095,0.03015 A 14.551561,14.326651 0 0 0 21.248699,76.312586 14.551561,14.326651 0 0 0 35.800191,90.639066 14.551561,14.326651 0 0 0 50.351683,76.312586 14.551561,14.326651 0 0 0 35.800191,61.985831 Z m 34.754284,0.572478 V 76.83904 c -2.14e-4,4.47416 -1.660545,7.91947 -6.047216,7.821439 -0.857373,-0.01917 -5.957326,0.73122 -5.957326,-8.102167 V 62.57284 h -6.213824 l 0.0092,17.134777 c 0,5.800062 2.818569,10.374847 8.707751,10.735777 2.872811,0.176067 6.712829,-0.887004 9.532684,-4.811563 v 4.177989 h 6.142497 V 62.558306 Z m -34.812959,4.864044 c 4.546513,0.0085 8.101661,3.989769 8.185062,8.746236 0.08686,4.953268 -3.554811,8.790025 -8.185062,8.745965 -4.520298,-2.6e-5 -8.025251,-3.918339 -8.184791,-8.745965 -0.160685,-4.862488 3.53158,-8.772772 8.184791,-8.746236 z m -29.8579405,0.09043 c 2.3260378,0.04079 4.5113235,1.126954 5.9099535,3.424638 0.779244,1.280156 1.468181,2.928658 1.493234,4.997276 0.02516,2.077067 -0.498979,3.823658 -1.36055,5.205594 -1.506151,2.415814 -4.0432,3.717486 -6.4770456,3.724465 -2.282374,0.0066 -4.59368711,-1.130205 -6.10320323,-3.342278 C -1.553265,80.204741 -2.1679793,78.497429 -2.3222112,76.400861 -2.5068354,73.891251 -1.53866,71.861817 -0.33455565,70.385673 1.1398805,68.578114 3.2609597,67.608511 5.4166033,67.518439 c 0.1561279,-0.0065 0.3119016,-0.0084 0.4669722,-0.0057 z" /></g></svg>
